<mxfile host="app.diagrams.net" modified="2024-04-24T00:05:11.671Z" agent="Mozilla/5.0 (X11; Linux x86_64; rv:124.0) Gecko/20100101 Firefox/124.0" version="24.0.6" etag="6UMtn4y1nVusqrcSjnX-" type="github">
  <diagram id="uwfAcFQ30mh1qVoZ9az8" name="Page-1">
    <mxGraphModel dx="4069" dy="2191" grid="1" gridSize="10" guides="1" tooltips="1" connect="1" arrows="1" fold="1" page="1" pageScale="1" pageWidth="850" pageHeight="1100" math="0" shadow="0">
      <root>
        <mxCell id="0" />
        <mxCell id="1" parent="0" />
        <mxCell id="cQRUg3gUIwxrzt-b6gOe-111" value="" style="group;aspect=fixed;fontSize=15;" vertex="1" connectable="0" parent="1">
          <mxGeometry width="1460" height="1101.89" as="geometry" />
        </mxCell>
        <mxCell id="58" style="edgeStyle=none;html=1;exitX=0.5;exitY=0;exitDx=0;exitDy=0;entryX=0.5;entryY=1;entryDx=0;entryDy=0;fontSize=15;endArrow=none;endFill=0;" parent="cQRUg3gUIwxrzt-b6gOe-111" source="2" target="5" edge="1">
          <mxGeometry relative="1" as="geometry" />
        </mxCell>
        <mxCell id="60" style="edgeStyle=none;html=1;exitX=0.75;exitY=0;exitDx=0;exitDy=0;entryX=0.5;entryY=1;entryDx=0;entryDy=0;fontSize=15;endArrow=none;endFill=0;" parent="cQRUg3gUIwxrzt-b6gOe-111" source="2" target="6" edge="1">
          <mxGeometry relative="1" as="geometry" />
        </mxCell>
        <mxCell id="2" value="&lt;font style=&quot;font-size: 15px;&quot;&gt;Client&lt;/font&gt;" style="rounded=0;whiteSpace=wrap;html=1;fontSize=15;" parent="cQRUg3gUIwxrzt-b6gOe-111" vertex="1">
          <mxGeometry x="353.52201257861634" y="86.79220233333332" width="72.79798742138365" height="32.358836333333336" as="geometry" />
        </mxCell>
        <mxCell id="59" style="edgeStyle=none;html=1;exitX=0.5;exitY=1;exitDx=0;exitDy=0;entryX=0.25;entryY=0;entryDx=0;entryDy=0;fontSize=15;endArrow=none;endFill=0;" parent="cQRUg3gUIwxrzt-b6gOe-111" source="3" target="2" edge="1">
          <mxGeometry relative="1" as="geometry" />
        </mxCell>
        <mxCell id="3" value="Name" style="ellipse;whiteSpace=wrap;html=1;fontSize=15;" parent="cQRUg3gUIwxrzt-b6gOe-111" vertex="1">
          <mxGeometry x="238.74213836477978" y="19.677918916666666" width="75.81899371069181" height="32.358836333333336" as="geometry" />
        </mxCell>
        <mxCell id="5" value="&lt;u style=&quot;font-size: 15px;&quot;&gt;Phone Number&lt;/u&gt;" style="ellipse;whiteSpace=wrap;html=1;fontSize=15;" parent="cQRUg3gUIwxrzt-b6gOe-111" vertex="1">
          <mxGeometry x="326.42477987421387" y="0.661133999999999" width="105.14754716981133" height="59.46533033333334" as="geometry" />
        </mxCell>
        <mxCell id="6" value="&lt;u style=&quot;font-size: 15px;&quot;&gt;Email&lt;/u&gt;" style="ellipse;whiteSpace=wrap;html=1;fontSize=15;" parent="cQRUg3gUIwxrzt-b6gOe-111" vertex="1">
          <mxGeometry x="440.75471698113205" y="11.808587833333346" width="66.26930817610064" height="37.17042266666667" as="geometry" />
        </mxCell>
        <mxCell id="7" value="Serice Provider" style="rounded=0;whiteSpace=wrap;html=1;fontSize=15;" parent="cQRUg3gUIwxrzt-b6gOe-111" vertex="1">
          <mxGeometry x="139.26930817610065" y="540.4494977500001" width="107.18603773584907" height="31.918080333333332" as="geometry" />
        </mxCell>
        <mxCell id="40" style="edgeStyle=none;html=1;exitX=1;exitY=0.5;exitDx=0;exitDy=0;entryX=0;entryY=0;entryDx=0;entryDy=0;fontSize=15;endArrow=none;endFill=0;" parent="cQRUg3gUIwxrzt-b6gOe-111" source="9" target="7" edge="1">
          <mxGeometry relative="1" as="geometry" />
        </mxCell>
        <mxCell id="9" value="Name" style="ellipse;whiteSpace=wrap;html=1;fontSize=15;" parent="cQRUg3gUIwxrzt-b6gOe-111" vertex="1">
          <mxGeometry x="62.80754716981133" y="507.64990541666674" width="60.29157232704402" height="31.48650675" as="geometry" />
        </mxCell>
        <mxCell id="42" style="edgeStyle=none;html=1;exitX=0.5;exitY=0;exitDx=0;exitDy=0;entryX=0.75;entryY=1;entryDx=0;entryDy=0;fontSize=15;endArrow=none;endFill=0;" parent="cQRUg3gUIwxrzt-b6gOe-111" source="10" target="7" edge="1">
          <mxGeometry relative="1" as="geometry" />
        </mxCell>
        <mxCell id="10" value="&lt;u style=&quot;font-size: 15px;&quot;&gt;Email&lt;/u&gt;" style="ellipse;whiteSpace=wrap;html=1;fontSize=15;" parent="cQRUg3gUIwxrzt-b6gOe-111" vertex="1">
          <mxGeometry x="221.11194968553457" y="595.10324175" width="75.73635220125787" height="38.04275225" as="geometry" />
        </mxCell>
        <mxCell id="41" style="edgeStyle=none;html=1;exitX=0;exitY=0.5;exitDx=0;exitDy=0;fontSize=15;endArrow=none;endFill=0;" parent="cQRUg3gUIwxrzt-b6gOe-111" source="11" target="7" edge="1">
          <mxGeometry relative="1" as="geometry" />
        </mxCell>
        <mxCell id="11" value="&lt;u style=&quot;font-size: 15px;&quot;&gt;Phone Number&lt;/u&gt;" style="ellipse;whiteSpace=wrap;html=1;fontSize=15;" parent="cQRUg3gUIwxrzt-b6gOe-111" vertex="1">
          <mxGeometry x="278.5937106918239" y="523.8293235833333" width="119.93119496855347" height="55.094500000000004" as="geometry" />
        </mxCell>
        <mxCell id="39" style="edgeStyle=none;html=1;exitX=0.5;exitY=0;exitDx=0;exitDy=0;entryX=0.25;entryY=1;entryDx=0;entryDy=0;fontSize=15;endArrow=none;endFill=0;" parent="cQRUg3gUIwxrzt-b6gOe-111" source="12" target="7" edge="1">
          <mxGeometry relative="1" as="geometry" />
        </mxCell>
        <mxCell id="12" value="Average Rating" style="ellipse;whiteSpace=wrap;html=1;fontSize=15;" parent="cQRUg3gUIwxrzt-b6gOe-111" vertex="1">
          <mxGeometry x="71.98993710691825" y="609.0972447500001" width="111.97006289308176" height="38.04275225" as="geometry" />
        </mxCell>
        <mxCell id="51" style="edgeStyle=none;html=1;exitX=0.75;exitY=1;exitDx=0;exitDy=0;entryX=0.5;entryY=0;entryDx=0;entryDy=0;fontSize=15;endArrow=none;endFill=0;" parent="cQRUg3gUIwxrzt-b6gOe-111" source="13" target="14" edge="1">
          <mxGeometry relative="1" as="geometry" />
        </mxCell>
        <mxCell id="52" style="edgeStyle=none;html=1;exitX=0.25;exitY=1;exitDx=0;exitDy=0;entryX=0.5;entryY=0;entryDx=0;entryDy=0;fontSize=15;endArrow=none;endFill=0;" parent="cQRUg3gUIwxrzt-b6gOe-111" source="13" target="15" edge="1">
          <mxGeometry relative="1" as="geometry" />
        </mxCell>
        <mxCell id="54" style="edgeStyle=none;html=1;exitX=1;exitY=0.75;exitDx=0;exitDy=0;entryX=0;entryY=0.5;entryDx=0;entryDy=0;fontSize=15;endArrow=none;endFill=0;" parent="cQRUg3gUIwxrzt-b6gOe-111" source="13" target="26" edge="1">
          <mxGeometry relative="1" as="geometry" />
        </mxCell>
        <mxCell id="13" value="Contract" style="rounded=0;whiteSpace=wrap;html=1;fontSize=15;" parent="cQRUg3gUIwxrzt-b6gOe-111" vertex="1">
          <mxGeometry x="345.2945911949686" y="336.5263884166667" width="72.67861635220126" height="28.722599333333335" as="geometry" />
        </mxCell>
        <mxCell id="14" value="Creation Time" style="ellipse;whiteSpace=wrap;html=1;fontSize=15;" parent="cQRUg3gUIwxrzt-b6gOe-111" vertex="1">
          <mxGeometry x="409.4703144654088" y="392.79623775" width="99.81257861635221" height="35.71960083333334" as="geometry" />
        </mxCell>
        <mxCell id="15" value="Description" style="ellipse;whiteSpace=wrap;html=1;fontSize=15;" parent="cQRUg3gUIwxrzt-b6gOe-111" vertex="1">
          <mxGeometry x="232.61748427672958" y="392.79623775" width="90.99748427672955" height="43.598114333333335" as="geometry" />
        </mxCell>
        <mxCell id="55" style="edgeStyle=none;html=1;exitX=0.5;exitY=1;exitDx=0;exitDy=0;entryX=1;entryY=0;entryDx=0;entryDy=0;fontSize=15;endArrow=none;endFill=0;" parent="cQRUg3gUIwxrzt-b6gOe-111" source="17" target="13" edge="1">
          <mxGeometry relative="1" as="geometry" />
        </mxCell>
        <mxCell id="17" value="Dates of Service" style="ellipse;whiteSpace=wrap;html=1;fontSize=15;" parent="cQRUg3gUIwxrzt-b6gOe-111" vertex="1">
          <mxGeometry x="399.60842767295605" y="253.15922750000007" width="119.53635220125787" height="44.9020175" as="geometry" />
        </mxCell>
        <mxCell id="57" style="edgeStyle=none;html=1;exitX=0.5;exitY=1;exitDx=0;exitDy=0;entryX=0.5;entryY=0;entryDx=0;entryDy=0;fontSize=15;endArrow=none;endFill=0;" parent="cQRUg3gUIwxrzt-b6gOe-111" source="18" target="13" edge="1">
          <mxGeometry relative="1" as="geometry" />
        </mxCell>
        <mxCell id="18" value="Total Charge" style="ellipse;whiteSpace=wrap;html=1;fontSize=15;" parent="cQRUg3gUIwxrzt-b6gOe-111" vertex="1">
          <mxGeometry x="331.29144654088054" y="210.32325375" width="100.67572327044026" height="35.55431733333334" as="geometry" />
        </mxCell>
        <mxCell id="56" style="edgeStyle=none;html=1;exitX=0.5;exitY=1;exitDx=0;exitDy=0;entryX=0;entryY=0;entryDx=0;entryDy=0;fontSize=15;endArrow=none;endFill=0;" parent="cQRUg3gUIwxrzt-b6gOe-111" source="19" target="13" edge="1">
          <mxGeometry relative="1" as="geometry" />
        </mxCell>
        <mxCell id="19" value="Prepaid Amount" style="ellipse;whiteSpace=wrap;html=1;fontSize=15;" parent="cQRUg3gUIwxrzt-b6gOe-111" vertex="1">
          <mxGeometry x="237.23622641509436" y="257.9708138333333" width="125.09169811320754" height="35.28802725" as="geometry" />
        </mxCell>
        <mxCell id="26" value="Balance Due" style="ellipse;whiteSpace=wrap;html=1;align=center;dashed=1;fontSize=15;" parent="cQRUg3gUIwxrzt-b6gOe-111" vertex="1">
          <mxGeometry x="447.3109433962265" y="336.5263884166667" width="99.4177358490566" height="40.97194316666667" as="geometry" />
        </mxCell>
        <mxCell id="53" style="edgeStyle=none;html=1;exitX=1;exitY=0.5;exitDx=0;exitDy=0;entryX=0;entryY=0.5;entryDx=0;entryDy=0;fontSize=15;endArrow=none;endFill=0;" parent="cQRUg3gUIwxrzt-b6gOe-111" source="27" target="13" edge="1">
          <mxGeometry relative="1" as="geometry" />
        </mxCell>
        <mxCell id="27" value="Confirmation Code" style="ellipse;whiteSpace=wrap;html=1;align=center;fontStyle=4;fontSize=15;" parent="cQRUg3gUIwxrzt-b6gOe-111" vertex="1">
          <mxGeometry x="165.28301886792454" y="319.90621425" width="130.75723270440253" height="61.96294766666667" as="geometry" />
        </mxCell>
        <mxCell id="cQRUg3gUIwxrzt-b6gOe-122" style="edgeStyle=orthogonalEdgeStyle;rounded=0;orthogonalLoop=1;jettySize=auto;html=1;exitX=1;exitY=0.25;exitDx=0;exitDy=0;entryX=0.5;entryY=1;entryDx=0;entryDy=0;endArrow=none;endFill=0;" edge="1" parent="cQRUg3gUIwxrzt-b6gOe-111" source="29" target="30">
          <mxGeometry relative="1" as="geometry" />
        </mxCell>
        <mxCell id="29" value="Service" style="rounded=0;whiteSpace=wrap;html=1;fontSize=15;" parent="cQRUg3gUIwxrzt-b6gOe-111" vertex="1">
          <mxGeometry x="569.308176100629" y="84.81798275000001" width="70.99823899371069" height="34.33305591666667" as="geometry" />
        </mxCell>
        <mxCell id="30" value="Service Name" style="ellipse;whiteSpace=wrap;html=1;fontSize=15;" parent="cQRUg3gUIwxrzt-b6gOe-111" vertex="1">
          <mxGeometry x="650.902893081761" y="18.58521133333333" width="109.69283018867924" height="46.784412916666675" as="geometry" />
        </mxCell>
        <mxCell id="cQRUg3gUIwxrzt-b6gOe-120" style="edgeStyle=orthogonalEdgeStyle;rounded=0;orthogonalLoop=1;jettySize=auto;html=1;exitX=0.5;exitY=1;exitDx=0;exitDy=0;entryX=0.25;entryY=0;entryDx=0;entryDy=0;endArrow=none;endFill=0;" edge="1" parent="cQRUg3gUIwxrzt-b6gOe-111" source="31" target="29">
          <mxGeometry relative="1" as="geometry" />
        </mxCell>
        <mxCell id="31" value="Locations" style="ellipse;shape=doubleEllipse;margin=3;whiteSpace=wrap;html=1;align=center;fontSize=15;" parent="cQRUg3gUIwxrzt-b6gOe-111" vertex="1">
          <mxGeometry x="530.6411320754717" y="8.750843083333333" width="101.00628930817611" height="43.28591216666667" as="geometry" />
        </mxCell>
        <mxCell id="32" value="Review" style="shape=ext;margin=3;double=1;whiteSpace=wrap;html=1;align=center;fontSize=15;" parent="cQRUg3gUIwxrzt-b6gOe-111" vertex="1">
          <mxGeometry x="55.09433962264151" y="86.79220233333332" width="87.0582389937107" height="50.282913666666666" as="geometry" />
        </mxCell>
        <mxCell id="46" style="edgeStyle=none;html=1;exitX=0.5;exitY=1;exitDx=0;exitDy=0;entryX=0.75;entryY=0;entryDx=0;entryDy=0;fontSize=15;endArrow=none;endFill=0;" parent="cQRUg3gUIwxrzt-b6gOe-111" source="33" target="32" edge="1">
          <mxGeometry relative="1" as="geometry" />
        </mxCell>
        <mxCell id="33" value="&lt;span style=&quot;border-bottom: 1px dotted; font-size: 15px;&quot;&gt;&lt;font style=&quot;font-size: 15px;&quot;&gt;Reviewer ID&lt;/font&gt;&lt;/span&gt;" style="ellipse;whiteSpace=wrap;html=1;align=center;fontSize=15;" parent="cQRUg3gUIwxrzt-b6gOe-111" vertex="1">
          <mxGeometry x="101.00628930817611" y="11.80858783333332" width="108.48075471698114" height="55.094500000000004" as="geometry" />
        </mxCell>
        <mxCell id="47" style="edgeStyle=none;html=1;exitX=0.5;exitY=0;exitDx=0;exitDy=0;entryX=0.75;entryY=1;entryDx=0;entryDy=0;fontSize=15;endArrow=none;endFill=0;" parent="cQRUg3gUIwxrzt-b6gOe-111" source="34" target="32" edge="1">
          <mxGeometry relative="1" as="geometry" />
        </mxCell>
        <mxCell id="34" value="&lt;span style=&quot;border-bottom: 1px dotted; font-size: 15px;&quot;&gt;Service Provider ID&lt;/span&gt;" style="ellipse;whiteSpace=wrap;html=1;align=center;fontSize=15;" parent="cQRUg3gUIwxrzt-b6gOe-111" vertex="1">
          <mxGeometry x="75.21295597484277" y="220.37800000000001" width="134.27408805031445" height="73.02775975" as="geometry" />
        </mxCell>
        <mxCell id="45" style="edgeStyle=none;html=1;exitX=0.5;exitY=1;exitDx=0;exitDy=0;entryX=0.25;entryY=0;entryDx=0;entryDy=0;fontSize=15;endArrow=none;endFill=0;" parent="cQRUg3gUIwxrzt-b6gOe-111" source="35" target="32" edge="1">
          <mxGeometry relative="1" as="geometry" />
        </mxCell>
        <mxCell id="35" value="Rating" style="ellipse;whiteSpace=wrap;html=1;fontSize=15;" parent="cQRUg3gUIwxrzt-b6gOe-111" vertex="1">
          <mxGeometry x="9.182389937106919" y="18.585211333333344" width="73.45911949685535" height="41.541253000000005" as="geometry" />
        </mxCell>
        <mxCell id="48" style="edgeStyle=none;html=1;exitX=0.5;exitY=0;exitDx=0;exitDy=0;entryX=0.25;entryY=1;entryDx=0;entryDy=0;fontSize=15;endArrow=none;endFill=0;" parent="cQRUg3gUIwxrzt-b6gOe-111" source="36" target="32" edge="1">
          <mxGeometry relative="1" as="geometry" />
        </mxCell>
        <mxCell id="36" value="Comments" style="ellipse;whiteSpace=wrap;html=1;fontSize=15;" parent="cQRUg3gUIwxrzt-b6gOe-111" vertex="1">
          <mxGeometry x="9.182389937106919" y="165.28350000000006" width="110.18867924528303" height="45.03975375" as="geometry" />
        </mxCell>
        <mxCell id="104" style="edgeStyle=none;html=1;exitX=0.75;exitY=0;exitDx=0;exitDy=0;entryX=0.5;entryY=1;entryDx=0;entryDy=0;fontSize=15;endArrow=none;endFill=0;" parent="cQRUg3gUIwxrzt-b6gOe-111" source="93" target="103" edge="1">
          <mxGeometry relative="1" as="geometry" />
        </mxCell>
        <mxCell id="105" style="edgeStyle=none;html=1;exitX=0.25;exitY=0;exitDx=0;exitDy=0;entryX=0.5;entryY=1;entryDx=0;entryDy=0;fontSize=15;endArrow=none;endFill=0;" parent="cQRUg3gUIwxrzt-b6gOe-111" source="93" target="102" edge="1">
          <mxGeometry relative="1" as="geometry" />
        </mxCell>
        <mxCell id="93" value="Equipment Rental" style="rounded=0;whiteSpace=wrap;html=1;fontSize=15;" parent="cQRUg3gUIwxrzt-b6gOe-111" vertex="1">
          <mxGeometry x="499.7663081384392" y="640.1464935634906" width="166.10778443113801" height="87.45158730158725" as="geometry" />
        </mxCell>
        <mxCell id="102" value="Rental ID" style="ellipse;whiteSpace=wrap;html=1;align=center;fontStyle=4;fontSize=15;" parent="cQRUg3gUIwxrzt-b6gOe-111" vertex="1">
          <mxGeometry x="447.31121831808207" y="543.9497475317469" width="148.62275449101813" height="61.216111111110926" as="geometry" />
        </mxCell>
        <mxCell id="103" value="Equipment List" style="ellipse;shape=doubleEllipse;margin=3;whiteSpace=wrap;html=1;align=center;fontSize=15;" parent="cQRUg3gUIwxrzt-b6gOe-111" vertex="1">
          <mxGeometry x="552.221397958799" y="449.93929118253993" width="166.10778443113801" height="91.82416666666667" as="geometry" />
        </mxCell>
        <mxCell id="109" style="edgeStyle=none;html=1;exitX=0.5;exitY=0;exitDx=0;exitDy=0;entryX=0.25;entryY=1;entryDx=0;entryDy=0;fontSize=15;endArrow=none;endFill=0;" parent="cQRUg3gUIwxrzt-b6gOe-111" source="106" target="93" edge="1">
          <mxGeometry relative="1" as="geometry" />
        </mxCell>
        <mxCell id="106" value="Start Date" style="ellipse;whiteSpace=wrap;html=1;fontSize=15;" parent="cQRUg3gUIwxrzt-b6gOe-111" vertex="1">
          <mxGeometry x="456.0537332881425" y="762.5787157857144" width="122.39520958083868" height="65.58869047619027" as="geometry" />
        </mxCell>
        <mxCell id="110" style="edgeStyle=none;html=1;exitX=1;exitY=0;exitDx=0;exitDy=0;entryX=0.75;entryY=1;entryDx=0;entryDy=0;fontSize=15;endArrow=none;endFill=0;" parent="cQRUg3gUIwxrzt-b6gOe-111" source="107" target="93" edge="1">
          <mxGeometry relative="1" as="geometry" />
        </mxCell>
        <mxCell id="107" value="&lt;div&gt;End Date&lt;/div&gt;" style="ellipse;whiteSpace=wrap;html=1;fontSize=15;" parent="cQRUg3gUIwxrzt-b6gOe-111" vertex="1">
          <mxGeometry x="460.4249907731681" y="858.7754618174595" width="122.39520958083868" height="65.58869047619027" as="geometry" />
        </mxCell>
        <mxCell id="111" style="edgeStyle=none;html=1;exitX=0.5;exitY=0;exitDx=0;exitDy=0;entryX=1;entryY=1;entryDx=0;entryDy=0;fontSize=15;endArrow=none;endFill=0;" parent="cQRUg3gUIwxrzt-b6gOe-111" source="108" target="93" edge="1">
          <mxGeometry relative="1" as="geometry" />
        </mxCell>
        <mxCell id="108" value="Cost" style="ellipse;whiteSpace=wrap;html=1;fontSize=15;" parent="cQRUg3gUIwxrzt-b6gOe-111" vertex="1">
          <mxGeometry x="595.9339728091003" y="832.5399856269831" width="122.39520958083868" height="65.58869047619027" as="geometry" />
        </mxCell>
        <mxCell id="cQRUg3gUIwxrzt-b6gOe-123" value="&amp;nbsp;" style="text;whiteSpace=wrap;html=1;" vertex="1" parent="1">
          <mxGeometry x="410" y="340" width="40" height="40" as="geometry" />
        </mxCell>
        <mxCell id="cQRUg3gUIwxrzt-b6gOe-125" value="&amp;nbsp;" style="text;whiteSpace=wrap;html=1;" vertex="1" parent="1">
          <mxGeometry x="210" y="630" width="40" height="40" as="geometry" />
        </mxCell>
      </root>
    </mxGraphModel>
  </diagram>
</mxfile>
